<mxfile host="Electron" agent="Mozilla/5.0 (X11; Linux x86_64) AppleWebKit/537.36 (KHTML, like Gecko) draw.io/28.2.5 Chrome/138.0.7204.251 Electron/37.6.1 Safari/537.36" version="28.2.5">
  <diagram name="第 1 页" id="A2wYnKDMZFF023bxGnZ8">
    <mxGraphModel dx="1426" dy="788" grid="1" gridSize="10" guides="1" tooltips="1" connect="1" arrows="1" fold="1" page="1" pageScale="1" pageWidth="827" pageHeight="1169" background="none" math="0" shadow="0">
      <root>
        <mxCell id="0" />
        <mxCell id="1" parent="0" />
        <mxCell id="-QrxRBGIXTvyxB3OS5xk-55" value="" style="rounded=0;whiteSpace=wrap;html=1;" parent="1" vertex="1">
          <mxGeometry x="10" y="168" width="2100" height="1222" as="geometry" />
        </mxCell>
        <mxCell id="-QrxRBGIXTvyxB3OS5xk-1" value="ClassPathScanningCandidateComponentProvider" style="shape=umlLifeline;whiteSpace=wrap;html=1;container=1;dropTarget=0;collapsible=0;recursiveResize=0;outlineConnect=0;portConstraint=eastwest;newEdgeStyle={&quot;curved&quot;:0,&quot;rounded&quot;:0};fontSize=20;fontStyle=1;points=[[0,0,0,0,5],[0,1,0,0,-5],[1,0,0,0,5],[1,1,0,0,-5]];perimeter=rectanglePerimeter;targetShapes=umlLifeline;participant=label;" parent="1" vertex="1">
          <mxGeometry x="90" y="210" width="490" height="1090" as="geometry" />
        </mxCell>
        <mxCell id="-QrxRBGIXTvyxB3OS5xk-2" value="" style="html=1;points=[[0,0,0,0,5],[0,1,0,0,-5],[1,0,0,0,5],[1,1,0,0,-5]];perimeter=orthogonalPerimeter;outlineConnect=0;targetShapes=umlLifeline;portConstraint=eastwest;newEdgeStyle={&quot;curved&quot;:0,&quot;rounded&quot;:0};" parent="-QrxRBGIXTvyxB3OS5xk-1" vertex="1">
          <mxGeometry x="240" y="130" width="10" height="890" as="geometry" />
        </mxCell>
        <mxCell id="-QrxRBGIXTvyxB3OS5xk-8" value="返回包路径下的所有java class类" style="html=1;verticalAlign=bottom;endArrow=open;dashed=1;endSize=8;curved=0;rounded=0;exitX=0;exitY=1;exitDx=0;exitDy=-5;fontSize=20;" parent="-QrxRBGIXTvyxB3OS5xk-1" source="-QrxRBGIXTvyxB3OS5xk-6" edge="1">
          <mxGeometry relative="1" as="geometry">
            <mxPoint x="250" y="225" as="targetPoint" />
          </mxGeometry>
        </mxCell>
        <mxCell id="-QrxRBGIXTvyxB3OS5xk-16" value="" style="html=1;points=[[0,0,0,0,5],[0,1,0,0,-5],[1,0,0,0,5],[1,1,0,0,-5]];perimeter=orthogonalPerimeter;outlineConnect=0;targetShapes=umlLifeline;portConstraint=eastwest;newEdgeStyle={&quot;curved&quot;:0,&quot;rounded&quot;:0};" parent="-QrxRBGIXTvyxB3OS5xk-1" vertex="1">
          <mxGeometry x="245" y="280" width="10" height="40" as="geometry" />
        </mxCell>
        <mxCell id="-QrxRBGIXTvyxB3OS5xk-17" value="忽略Cglib代理类" style="html=1;align=left;spacingLeft=2;endArrow=block;rounded=0;edgeStyle=orthogonalEdgeStyle;curved=0;rounded=0;fontSize=20;" parent="-QrxRBGIXTvyxB3OS5xk-1" target="-QrxRBGIXTvyxB3OS5xk-16" edge="1">
          <mxGeometry relative="1" as="geometry">
            <mxPoint x="250" y="260" as="sourcePoint" />
            <Array as="points">
              <mxPoint x="280" y="290" />
            </Array>
          </mxGeometry>
        </mxCell>
        <mxCell id="-QrxRBGIXTvyxB3OS5xk-21" value="getMetadataReader()" style="html=1;verticalAlign=bottom;endArrow=block;curved=0;rounded=0;entryX=0;entryY=0;entryDx=0;entryDy=5;fontSize=20;" parent="-QrxRBGIXTvyxB3OS5xk-1" target="-QrxRBGIXTvyxB3OS5xk-20" edge="1">
          <mxGeometry relative="1" as="geometry">
            <mxPoint x="250" y="355" as="sourcePoint" />
          </mxGeometry>
        </mxCell>
        <mxCell id="-QrxRBGIXTvyxB3OS5xk-23" value="" style="html=1;points=[[0,0,0,0,5],[0,1,0,0,-5],[1,0,0,0,5],[1,1,0,0,-5]];perimeter=orthogonalPerimeter;outlineConnect=0;targetShapes=umlLifeline;portConstraint=eastwest;newEdgeStyle={&quot;curved&quot;:0,&quot;rounded&quot;:0};" parent="-QrxRBGIXTvyxB3OS5xk-1" vertex="1">
          <mxGeometry x="245" y="480" width="10" height="380" as="geometry" />
        </mxCell>
        <mxCell id="-QrxRBGIXTvyxB3OS5xk-24" value="isCandidateComponent()：一层过滤器" style="html=1;align=left;spacingLeft=2;endArrow=block;rounded=0;edgeStyle=orthogonalEdgeStyle;curved=0;rounded=0;fontSize=20;" parent="-QrxRBGIXTvyxB3OS5xk-1" target="-QrxRBGIXTvyxB3OS5xk-23" edge="1">
          <mxGeometry relative="1" as="geometry">
            <mxPoint x="250" y="460" as="sourcePoint" />
            <Array as="points">
              <mxPoint x="280" y="490" />
            </Array>
          </mxGeometry>
        </mxCell>
        <mxCell id="-QrxRBGIXTvyxB3OS5xk-43" value="" style="html=1;points=[[0,0,0,0,5],[0,1,0,0,-5],[1,0,0,0,5],[1,1,0,0,-5]];perimeter=orthogonalPerimeter;outlineConnect=0;targetShapes=umlLifeline;portConstraint=eastwest;newEdgeStyle={&quot;curved&quot;:0,&quot;rounded&quot;:0};" parent="-QrxRBGIXTvyxB3OS5xk-1" vertex="1">
          <mxGeometry x="255" y="508" width="10" height="96" as="geometry" />
        </mxCell>
        <mxCell id="-QrxRBGIXTvyxB3OS5xk-45" value="" style="html=1;points=[[0,0,0,0,5],[0,1,0,0,-5],[1,0,0,0,5],[1,1,0,0,-5]];perimeter=orthogonalPerimeter;outlineConnect=0;targetShapes=umlLifeline;portConstraint=eastwest;newEdgeStyle={&quot;curved&quot;:0,&quot;rounded&quot;:0};" parent="-QrxRBGIXTvyxB3OS5xk-1" vertex="1">
          <mxGeometry x="255" y="616" width="10" height="224" as="geometry" />
        </mxCell>
        <mxCell id="-QrxRBGIXTvyxB3OS5xk-53" value="" style="html=1;points=[[0,0,0,0,5],[0,1,0,0,-5],[1,0,0,0,5],[1,1,0,0,-5]];perimeter=orthogonalPerimeter;outlineConnect=0;targetShapes=umlLifeline;portConstraint=eastwest;newEdgeStyle={&quot;curved&quot;:0,&quot;rounded&quot;:0};" parent="-QrxRBGIXTvyxB3OS5xk-1" vertex="1">
          <mxGeometry x="250" y="919" width="10" height="40" as="geometry" />
        </mxCell>
        <mxCell id="-QrxRBGIXTvyxB3OS5xk-54" value="isCandidateComponent()：二层过滤器，验证是否是&quot;合格&quot;的类" style="html=1;align=left;spacingLeft=2;endArrow=block;rounded=0;edgeStyle=orthogonalEdgeStyle;curved=0;rounded=0;fontSize=20;" parent="-QrxRBGIXTvyxB3OS5xk-1" target="-QrxRBGIXTvyxB3OS5xk-53" edge="1">
          <mxGeometry relative="1" as="geometry">
            <mxPoint x="255" y="899" as="sourcePoint" />
            <Array as="points">
              <mxPoint x="285" y="929" />
            </Array>
          </mxGeometry>
        </mxCell>
        <mxCell id="-QrxRBGIXTvyxB3OS5xk-4" value="PathMatchingResourcePatternResolver" style="shape=umlLifeline;perimeter=lifelinePerimeter;whiteSpace=wrap;html=1;container=1;dropTarget=0;collapsible=0;recursiveResize=0;outlineConnect=0;portConstraint=eastwest;newEdgeStyle={&quot;curved&quot;:0,&quot;rounded&quot;:0};fontSize=20;fontStyle=1" parent="1" vertex="1">
          <mxGeometry x="607" y="210" width="390" height="1090" as="geometry" />
        </mxCell>
        <mxCell id="-QrxRBGIXTvyxB3OS5xk-6" value="" style="html=1;points=[[0,0,0,0,5],[0,1,0,0,-5],[1,0,0,0,5],[1,1,0,0,-5]];perimeter=orthogonalPerimeter;outlineConnect=0;targetShapes=umlLifeline;portConstraint=eastwest;newEdgeStyle={&quot;curved&quot;:0,&quot;rounded&quot;:0};" parent="-QrxRBGIXTvyxB3OS5xk-4" vertex="1">
          <mxGeometry x="190" y="150" width="10" height="80" as="geometry" />
        </mxCell>
        <mxCell id="-QrxRBGIXTvyxB3OS5xk-18" value="CachingMetadataReaderFactory" style="shape=umlLifeline;perimeter=lifelinePerimeter;whiteSpace=wrap;html=1;container=1;dropTarget=0;collapsible=0;recursiveResize=0;outlineConnect=0;portConstraint=eastwest;newEdgeStyle={&quot;curved&quot;:0,&quot;rounded&quot;:0};fontSize=20;fontStyle=1" parent="1" vertex="1">
          <mxGeometry x="1017" y="210" width="330" height="1090" as="geometry" />
        </mxCell>
        <mxCell id="-QrxRBGIXTvyxB3OS5xk-20" value="" style="html=1;points=[[0,0,0,0,5],[0,1,0,0,-5],[1,0,0,0,5],[1,1,0,0,-5]];perimeter=orthogonalPerimeter;outlineConnect=0;targetShapes=umlLifeline;portConstraint=eastwest;newEdgeStyle={&quot;curved&quot;:0,&quot;rounded&quot;:0};" parent="-QrxRBGIXTvyxB3OS5xk-18" vertex="1">
          <mxGeometry x="160" y="350" width="10" height="80" as="geometry" />
        </mxCell>
        <mxCell id="-QrxRBGIXTvyxB3OS5xk-7" value="getResources()" style="html=1;verticalAlign=bottom;endArrow=block;curved=0;rounded=0;entryX=0;entryY=0;entryDx=0;entryDy=5;fontSize=20;" parent="1" source="-QrxRBGIXTvyxB3OS5xk-2" target="-QrxRBGIXTvyxB3OS5xk-6" edge="1">
          <mxGeometry relative="1" as="geometry">
            <mxPoint x="330" y="365" as="sourcePoint" />
          </mxGeometry>
        </mxCell>
        <mxCell id="-QrxRBGIXTvyxB3OS5xk-22" value="返回读取的元数据" style="html=1;verticalAlign=bottom;endArrow=open;dashed=1;endSize=8;curved=0;rounded=0;exitX=0;exitY=1;exitDx=0;exitDy=-5;fontSize=20;" parent="1" source="-QrxRBGIXTvyxB3OS5xk-20" target="-QrxRBGIXTvyxB3OS5xk-2" edge="1">
          <mxGeometry relative="1" as="geometry">
            <mxPoint x="339" y="635" as="targetPoint" />
          </mxGeometry>
        </mxCell>
        <mxCell id="-QrxRBGIXTvyxB3OS5xk-25" value="TypeFilter" style="shape=umlLifeline;perimeter=lifelinePerimeter;whiteSpace=wrap;html=1;container=1;dropTarget=0;collapsible=0;recursiveResize=0;outlineConnect=0;portConstraint=eastwest;newEdgeStyle={&quot;curved&quot;:0,&quot;rounded&quot;:0};fontSize=20;fontStyle=1" parent="1" vertex="1">
          <mxGeometry x="1371" y="210" width="170" height="1090" as="geometry" />
        </mxCell>
        <mxCell id="-QrxRBGIXTvyxB3OS5xk-27" value="" style="html=1;points=[[0,0,0,0,5],[0,1,0,0,-5],[1,0,0,0,5],[1,1,0,0,-5]];perimeter=orthogonalPerimeter;outlineConnect=0;targetShapes=umlLifeline;portConstraint=eastwest;newEdgeStyle={&quot;curved&quot;:0,&quot;rounded&quot;:0};" parent="-QrxRBGIXTvyxB3OS5xk-25" vertex="1">
          <mxGeometry x="80" y="514" width="10" height="80" as="geometry" />
        </mxCell>
        <mxCell id="-QrxRBGIXTvyxB3OS5xk-40" value="matchSelf():判断注解是否是@Component" style="html=1;verticalAlign=bottom;endArrow=block;curved=0;rounded=0;entryX=0;entryY=0;entryDx=0;entryDy=5;fontSize=20;fontColor=#FF0000;" parent="-QrxRBGIXTvyxB3OS5xk-25" target="-QrxRBGIXTvyxB3OS5xk-39" edge="1">
          <mxGeometry relative="1" as="geometry">
            <mxPoint x="90" y="628" as="sourcePoint" />
          </mxGeometry>
        </mxCell>
        <mxCell id="-QrxRBGIXTvyxB3OS5xk-41" value="返回boolean值" style="html=1;verticalAlign=bottom;endArrow=open;dashed=1;endSize=8;curved=0;rounded=0;exitX=0;exitY=1;exitDx=0;exitDy=-5;fontSize=20;" parent="-QrxRBGIXTvyxB3OS5xk-25" source="-QrxRBGIXTvyxB3OS5xk-39" edge="1">
          <mxGeometry relative="1" as="geometry">
            <mxPoint x="90" y="698" as="targetPoint" />
          </mxGeometry>
        </mxCell>
        <mxCell id="-QrxRBGIXTvyxB3OS5xk-28" value="执行排除组TypeFilter.match()" style="html=1;verticalAlign=bottom;endArrow=block;curved=0;rounded=0;entryX=0;entryY=0;entryDx=0;entryDy=5;fontSize=20;" parent="1" source="-QrxRBGIXTvyxB3OS5xk-43" target="-QrxRBGIXTvyxB3OS5xk-27" edge="1">
          <mxGeometry relative="1" as="geometry">
            <mxPoint x="380" y="730" as="sourcePoint" />
          </mxGeometry>
        </mxCell>
        <mxCell id="-QrxRBGIXTvyxB3OS5xk-29" value="匹配时跳过" style="html=1;verticalAlign=bottom;endArrow=open;dashed=1;endSize=8;curved=0;rounded=0;exitX=0;exitY=1;exitDx=0;exitDy=-5;fontSize=20;" parent="1" source="-QrxRBGIXTvyxB3OS5xk-27" target="-QrxRBGIXTvyxB3OS5xk-43" edge="1">
          <mxGeometry relative="1" as="geometry">
            <mxPoint x="380" y="800" as="targetPoint" />
          </mxGeometry>
        </mxCell>
        <mxCell id="-QrxRBGIXTvyxB3OS5xk-31" value="" style="html=1;points=[[0,0,0,0,5],[0,1,0,0,-5],[1,0,0,0,5],[1,1,0,0,-5]];perimeter=orthogonalPerimeter;outlineConnect=0;targetShapes=umlLifeline;portConstraint=eastwest;newEdgeStyle={&quot;curved&quot;:0,&quot;rounded&quot;:0};" parent="1" vertex="1">
          <mxGeometry x="1452" y="833" width="10" height="80" as="geometry" />
        </mxCell>
        <mxCell id="-QrxRBGIXTvyxB3OS5xk-32" value="执行包含组TypeFilter.match()" style="html=1;verticalAlign=bottom;endArrow=block;curved=0;rounded=0;entryX=0;entryY=0;entryDx=0;entryDy=5;fontSize=20;" parent="1" source="-QrxRBGIXTvyxB3OS5xk-45" target="-QrxRBGIXTvyxB3OS5xk-31" edge="1">
          <mxGeometry relative="1" as="geometry">
            <mxPoint x="370" y="838" as="sourcePoint" />
          </mxGeometry>
        </mxCell>
        <mxCell id="-QrxRBGIXTvyxB3OS5xk-33" value="匹配继续" style="html=1;verticalAlign=bottom;endArrow=open;dashed=1;endSize=8;curved=0;rounded=0;exitX=0;exitY=1;exitDx=0;exitDy=-5;fontSize=20;" parent="1" source="-QrxRBGIXTvyxB3OS5xk-31" target="-QrxRBGIXTvyxB3OS5xk-45" edge="1">
          <mxGeometry relative="1" as="geometry">
            <mxPoint x="360" y="908" as="targetPoint" />
          </mxGeometry>
        </mxCell>
        <mxCell id="-QrxRBGIXTvyxB3OS5xk-34" value="AnnotationTypeFilter" style="shape=umlLifeline;perimeter=lifelinePerimeter;whiteSpace=wrap;html=1;container=1;dropTarget=0;collapsible=0;recursiveResize=0;outlineConnect=0;portConstraint=eastwest;newEdgeStyle={&quot;curved&quot;:0,&quot;rounded&quot;:0};fontSize=20;fontStyle=1" parent="1" vertex="1">
          <mxGeometry x="1568" y="210" width="220" height="1090" as="geometry" />
        </mxCell>
        <mxCell id="-QrxRBGIXTvyxB3OS5xk-39" value="" style="html=1;points=[[0,0,0,0,5],[0,1,0,0,-5],[1,0,0,0,5],[1,1,0,0,-5]];perimeter=orthogonalPerimeter;outlineConnect=0;targetShapes=umlLifeline;portConstraint=eastwest;newEdgeStyle={&quot;curved&quot;:0,&quot;rounded&quot;:0};" parent="-QrxRBGIXTvyxB3OS5xk-34" vertex="1">
          <mxGeometry x="105" y="623" width="10" height="80" as="geometry" />
        </mxCell>
        <mxCell id="-QrxRBGIXTvyxB3OS5xk-46" value="ConditionEvaluator" style="shape=umlLifeline;perimeter=lifelinePerimeter;whiteSpace=wrap;html=1;container=1;dropTarget=0;collapsible=0;recursiveResize=0;outlineConnect=0;portConstraint=eastwest;newEdgeStyle={&quot;curved&quot;:0,&quot;rounded&quot;:0};fontSize=20;fontStyle=1" parent="1" vertex="1">
          <mxGeometry x="1810" y="210" width="220" height="1090" as="geometry" />
        </mxCell>
        <mxCell id="-QrxRBGIXTvyxB3OS5xk-48" value="" style="html=1;points=[[0,0,0,0,5],[0,1,0,0,-5],[1,0,0,0,5],[1,1,0,0,-5]];perimeter=orthogonalPerimeter;outlineConnect=0;targetShapes=umlLifeline;portConstraint=eastwest;newEdgeStyle={&quot;curved&quot;:0,&quot;rounded&quot;:0};" parent="-QrxRBGIXTvyxB3OS5xk-46" vertex="1">
          <mxGeometry x="105" y="740" width="10" height="80" as="geometry" />
        </mxCell>
        <mxCell id="-QrxRBGIXTvyxB3OS5xk-49" value="&lt;font style=&quot;color: rgb(255, 0, 0);&quot;&gt;shouldSkip()：条件化配置的核心&lt;/font&gt;" style="html=1;verticalAlign=bottom;endArrow=block;curved=0;rounded=0;entryX=0;entryY=0;entryDx=0;entryDy=5;fontSize=20;" parent="1" source="-QrxRBGIXTvyxB3OS5xk-45" target="-QrxRBGIXTvyxB3OS5xk-48" edge="1">
          <mxGeometry relative="1" as="geometry">
            <mxPoint x="410" y="955" as="sourcePoint" />
          </mxGeometry>
        </mxCell>
        <mxCell id="-QrxRBGIXTvyxB3OS5xk-50" value="true：跳过Bean注册，false：继续" style="html=1;verticalAlign=bottom;endArrow=open;dashed=1;endSize=8;curved=0;rounded=0;exitX=0;exitY=1;exitDx=0;exitDy=-5;fontSize=20;" parent="1" source="-QrxRBGIXTvyxB3OS5xk-48" target="-QrxRBGIXTvyxB3OS5xk-45" edge="1">
          <mxGeometry relative="1" as="geometry">
            <mxPoint x="410" y="1025" as="targetPoint" />
          </mxGeometry>
        </mxCell>
        <mxCell id="-QrxRBGIXTvyxB3OS5xk-56" value="scanCandidateComponents" style="html=1;verticalAlign=bottom;endArrow=block;curved=0;rounded=0;entryX=0;entryY=0;entryDx=0;entryDy=5;fontSize=20;fontStyle=1;fontColor=#FF0000;" parent="1" edge="1">
          <mxGeometry relative="1" as="geometry">
            <mxPoint x="40" y="365" as="sourcePoint" />
            <mxPoint x="328" y="365" as="targetPoint" />
          </mxGeometry>
        </mxCell>
        <mxCell id="-QrxRBGIXTvyxB3OS5xk-58" value="扫描@Component注解Bean过程" style="text;html=1;whiteSpace=wrap;strokeColor=none;fillColor=none;align=center;verticalAlign=middle;rounded=0;fontSize=20;fontStyle=1" parent="1" vertex="1">
          <mxGeometry x="850" y="1336" width="410" height="30" as="geometry" />
        </mxCell>
      </root>
    </mxGraphModel>
  </diagram>
</mxfile>
